Coordinates
version=1
nRows=16
nColumns=40
inDegrees=yes

Units are S.I. units (second, meters, Newtons, ...)
Angles are in degrees.

endheader
time	pelvis_tilt	pelvis_list	pelvis_rotation	pelvis_tx	pelvis_ty	pelvis_tz	hip_flexion_r	hip_adduction_r	hip_rotation_r	knee_angle_r	knee_angle_r_beta	ankle_angle_r	subtalar_angle_r	mtp_angle_r	hip_flexion_l	hip_adduction_l	hip_rotation_l	knee_angle_l	knee_angle_l_beta	ankle_angle_l	subtalar_angle_l	mtp_angle_l	lumbar_extension	lumbar_bending	lumbar_rotation	arm_flex_r	arm_add_r	arm_rot_r	elbow_flex_r	pro_sup_r	wrist_flex_r	wrist_dev_r	arm_flex_l	arm_add_l	arm_rot_l	elbow_flex_l	pro_sup_l	wrist_flex_l	wrist_dev_l
     23.31000000	     -4.13593047	     -2.52706649	      1.35310972	      0.80090838	      0.92790590	      0.34107496	     24.32298764	     -7.21050929	     -8.57142133	     62.25546655	     62.25546655	     -0.45189757	    -14.12597016	     -2.12083715	     16.24029253	     -4.55563438	    -10.90644863	     23.38150164	     23.38150164	     12.68625721	    -13.26219365	      1.92117967	    -10.52345570	      5.31808339	      2.68897905	     -7.06563649	    -18.28522688	    -15.66584450	     31.33516761	     46.23677644	      0.00000000	      0.00000000	      6.13329962	    -32.47384408	    -20.20937075	     59.59323586	     47.02763972	      0.00000000	      0.00000000
     23.32285714	     -4.11278970	     -2.65070749	      0.88667808	      0.79974037	      0.92876428	      0.34109198	     25.55993743	     -7.11205567	     -8.13678576	     63.40581895	     63.40581895	     -0.30864404	    -14.24882743	     -2.28462051	     15.54561154	     -4.66367728	    -11.12609910	     22.79632728	     22.79632728	     12.72099824	    -13.46585840	      2.15323461	    -10.66909241	      5.41774206	      2.59093890	     -6.82414228	    -18.22639220	    -15.65663755	     31.24458593	     46.24175426	      0.00000000	      0.00000000	      6.52470738	    -32.68813133	    -20.36280361	     59.61589730	     47.04654885	      0.00000000	      0.00000000
     23.33571429	     -4.07974111	     -2.75475922	      0.43216113	      0.79862121	      0.92952279	      0.34116746	     26.75472561	     -6.99716421	     -7.70837483	     64.46414935	     64.46414935	     -0.13607882	    -14.52849236	     -2.26953389	     14.89458700	     -4.77194648	    -11.38132486	     22.32758950	     22.32758950	     12.79512227	    -13.61521462	      2.29256023	    -10.80929560	      5.48595687	      2.48982857	     -6.67628987	    -18.14820249	    -15.67696769	     31.14297959	     46.24827373	      0.00000000	      0.00000000	      6.81818814	    -32.99012701	    -20.56559729	     59.65957358	     47.06983871	      0.00000000	      0.00000000
     23.34857143	     -4.05788801	     -2.88063781	     -0.02571743	      0.79750164	      0.93027432	      0.34132825	     27.88291822	     -6.83509156	     -7.32732808	     65.30115496	     65.30115496	      0.10054679	    -14.87873452	     -2.08820367	     14.25495262	     -4.90850905	    -11.66054294	     21.85396589	     21.85396589	     12.85814599	    -13.69407158	      2.39329508	    -10.95266106	      5.57527073	      2.37825649	     -6.46530316	    -18.07532900	    -15.72236933	     31.10032501	     46.25443367	      0.00000000	      0.00000000	      7.06306193	    -33.29799789	    -20.77308175	     59.75871457	     47.09495463	      0.00000000	      0.00000000
     23.36142857	     -4.04611136	     -3.00501663	     -0.47281482	      0.79639244	      0.93101756	      0.34159441	     28.90809655	     -6.66646488	     -7.01379087	     65.81942972	     65.81942972	      0.41297079	    -15.31246854	     -1.77761868	     13.62629723	     -5.04998665	    -11.98435941	     21.37193748	     21.37193748	     12.90675603	    -13.72356688	      2.47356233	    -11.09565324	      5.66114523	      2.25725102	     -6.19756742	    -18.00295618	    -15.77711415	     31.13815364	     46.25821124	      0.00000000	      0.00000000	      7.27150141	    -33.60810774	    -20.96115056	     59.90889212	     47.11875048	      0.00000000	      0.00000000
     23.37428571	     -4.02997229	     -3.12424139	     -0.90858560	      0.79535823	      0.93174031	      0.34198572	     29.80913108	     -6.49415937	     -6.76461604	     65.97778121	     65.97778121	      0.82682004	    -15.87466138	     -1.24804416	     12.96056141	     -5.17551367	    -12.28646778	     20.83349235	     20.83349235	     12.94889150	    -13.71863706	      2.52972177	    -11.23342264	      5.73412298	      2.12371163	     -5.86207356	    -17.90951881	    -15.84888884	     31.24578949	     46.26048337	      0.00000000	      0.00000000	      7.40730770	    -33.89929270	    -21.14764149	     60.11215535	     47.14360957	      0.00000000	      0.00000000
     23.38714286	     -4.06182919	     -3.25523729	     -1.31916906	      0.79429037	      0.93231346	      0.34248568	     30.72085271	     -6.34303703	     -6.61804354	     65.94188344	     65.94188344	      2.35312717	    -15.89443122	      2.22704896	     12.35883323	     -5.30942069	    -12.55367501	     20.27629048	     20.27629048	     12.73804638	    -13.90070692	      2.02554741	    -11.34531645	      5.80320822	      1.62607510	     -5.11137733	    -17.72425610	    -16.37386329	     31.36381205	     46.29045229	      0.00000000	      0.00000000	      6.73263628	    -34.22745665	    -22.08967968	     61.17810394	     47.27922056	      0.00000000	      0.00000000
     23.40000000	     -4.10827184	     -3.37556989	     -1.70345671	      0.79322552	      0.93284642	      0.34308529	     31.37162610	     -6.26110459	     -6.64222672	     65.19852836	     65.19852836	      2.79087168	    -16.55262000	      2.37364241	     11.82674215	     -5.45031474	    -12.85142591	     19.83779424	     19.83779424	     12.80300303	    -13.89596944	      2.12372113	    -11.41553288	      5.88126014	      1.56955768	     -4.66019410	    -17.61794517	    -16.34518655	     31.55712668	     46.28319312	      0.00000000	      0.00000000	      7.03396854	    -34.44866128	    -22.11469231	     61.32222332	     47.29004514	      0.00000000	      0.00000000
     23.41285714	     -4.13277965	     -3.46100079	     -2.08392797	      0.79223538	      0.93338080	      0.34383239	     31.84138025	     -6.17726172	     -6.66317104	     63.97635954	     63.97635954	      3.31738381	    -17.28797129	      2.73958688	     11.21136561	     -5.54300486	    -13.15002848	     19.29611049	     19.29611049	     12.85393078	    -13.84515642	      2.20912944	    -11.52147731	      5.93418595	      1.47605903	     -4.17751210	    -17.51340023	    -16.32293562	     31.85633001	     46.27187821	      0.00000000	      0.00000000	      7.22163976	    -34.65983930	    -22.11094266	     61.50611687	     47.29962557	      0.00000000	      0.00000000
     23.42571429	     -4.17008768	     -3.51926145	     -2.43995161	      0.79124654	      0.93372251	      0.34472117	     32.24652156	     -6.12822917	     -6.73372717	     62.45954447	     62.45954447	      4.56517843	    -17.62541989	      4.97803115	     10.62850310	     -5.61725686	    -13.45494156	     18.77124764	     18.77124764	     12.75576654	    -13.85947495	      1.86618323	    -11.64603418	      5.92709531	      1.18435308	     -3.74124058	    -17.39076253	    -16.17682694	     32.95504699	     46.21222424	      0.00000000	      0.00000000	      6.75354564	    -35.04257660	    -22.20858571	     62.43874212	     47.36019055	      0.00000000	      0.00000000
     23.43857143	     -4.24800819	     -3.56456227	     -2.76705354	      0.79026130	      0.93394691	      0.34565668	     32.45886499	     -6.13437888	     -6.94589968	     60.33960063	     60.33960063	      5.26006348	    -18.00335666	      5.50707880	     10.13257578	     -5.68327052	    -13.73951747	     18.33216348	     18.33216348	     12.80125376	    -13.81334854	      1.85772637	    -11.70341376	      5.93605346	      1.13599985	     -3.15964293	    -17.27691024	    -16.02871325	     33.40547139	     46.18644281	      0.00000000	      0.00000000	      6.98674483	    -35.20609564	    -22.20814076	     62.67514145	     47.37822629	      0.00000000	      0.00000000
     23.45142857	     -4.42667208	     -3.64154236	     -3.04148255	      0.78923285	      0.93385043	      0.34674862	     32.60273490	     -6.10184315	     -7.28182732	     57.76595873	     57.76595873	      5.91009144	    -18.19991366	      5.84868666	      9.82822433	     -5.80733662	    -13.92081464	     18.03031994	     18.03031994	     12.90351053	    -13.81376218	      1.83085195	    -11.65249064	      5.99035426	      1.07649205	     -2.53066432	    -17.12004241	    -15.93997296	     33.82183318	     46.16741356	      0.00000000	      0.00000000	      7.26666083	    -35.30391376	    -22.14114661	     62.92454936	     47.38352431	      0.00000000	      0.00000000
     23.46428571	     -4.56629964	     -3.67781531	     -3.29669729	      0.78831354	      0.93370041	      0.34796946	     32.52658731	     -6.03387658	     -7.60653958	     54.75188988	     54.75188988	      6.52203075	    -18.25440373	      6.23648807	      9.49210492	     -5.90276773	    -14.14805234	     17.76077691	     17.76077691	     12.99124694	    -13.79050502	      1.76633925	    -11.63198727	      5.98369612	      1.01215657	     -1.91168452	    -16.98061589	    -15.83972604	     34.33341596	     46.14373195	      0.00000000	      0.00000000	      7.48198124	    -35.41535412	    -22.05300692	     63.21364146	     47.38750341	      0.00000000	      0.00000000
     23.47714286	     -4.75221022	     -3.69744362	     -3.51421646	      0.78742660	      0.93334309	      0.34933427	     32.32793452	     -5.89366535	     -7.92439494	     51.34412926	     51.34412926	      7.03236929	    -18.10497413	      6.59056813	      9.23814596	     -5.99986816	    -14.35856545	     17.54678632	     17.54678632	     13.09651166	    -13.75344756	      1.65549250	    -11.56596122	      5.96501193	      0.96080492	     -1.27124063	    -16.80106922	    -15.71836574	     34.89881594	     46.11678215	      0.00000000	      0.00000000	      7.70154708	    -35.51199656	    -21.94734224	     63.53753589	     47.39030276	      0.00000000	      0.00000000
     23.49000000	     -4.87186656	     -3.77048086	     -3.67154307	      0.78674312	      0.93296289	      0.35082814	     31.82217439	     -5.59993578	     -8.24531784	     47.51239675	     47.51239675	      7.40375023	    -17.72623178	      6.85057656	      8.91931283	     -6.16586086	    -14.51846374	     17.36851695	     17.36851695	     13.24343165	    -13.65017794	      1.45670904	    -11.55747780	      6.02740999	      0.89129869	     -0.69214476	    -16.68473560	    -15.55530274	     35.60233520	     46.08139479	      0.00000000	      0.00000000	      7.81854791	    -35.55970959	    -21.79840654	     63.92482209	     47.39103289	      0.00000000	      0.00000000
     23.50285714	     -4.95447618	     -3.80772912	     -3.77889357	      0.78623910	      0.93245483	      0.35240303	     31.08338170	     -5.26836733	     -8.55592287	     43.37065226	     43.37065226	      7.54696081	    -17.00042540	      6.80621744	      8.60289468	     -6.31897743	    -14.72786311	     17.29385949	     17.29385949	     13.41925994	    -13.46561468	      1.12345308	    -11.57675678	      6.06766444	      0.83380960	     -0.21937569	    -16.63411809	    -15.28327965	     36.54143490	     46.02946737	      0.00000000	      0.00000000	      7.84683987	    -35.60729723	    -21.62066440	     64.42387883	     47.39285969	      0.00000000	      0.00000000
